

Narrowly avoiding jail, new dad Robbie vows to turn over a new leaf. A visit to a whisky distillery inspires him and his mates to seek a way out of their hopeless lives.

iMDB: http://www.imdb.com/title/tt1924394/

General
Complete name : The Angels Share 2012 BRRip x264 AAC-UNiQUE.mp4
Format : MPEG-4
Format profile : Base Media
Codec ID : isom
File size : 1.39 GiB
Duration : 1h 41mn
Overall bit rate mode : Variable
Overall bit rate : 1 972 Kbps
Encoded date : UTC 2012-09-23 19:45:15

Video
ID : 1
Format : AVC
Format/Info : Advanced Video Codec
Format profile : High@L4.1
Format settings, CABAC : Yes
Format settings, ReFrames : 3 frames
Codec ID : avc1
Codec ID/Info : Advanced Video Coding
Duration : 1h 41mn
Bit rate mode : Variable
Bit rate : 1 655 Kbps
Maximum bit rate : 40.0 Mbps
Width : 720 pixels
Height : 384 pixels
Display aspect ratio : 1.85:1
Frame rate mode : Constant
Frame rate : 23.976 fps
Color space : YUV
Chroma subsampling : 4:2:0
Bit depth : 8 bits
Scan type : Progressive
Bits/(Pixel*Frame) : 0.250
Stream size : 1.17 GiB (84%)
Writing library : x264 core 128 r2216 198a7ea

Audio
ID : 2
Format : AAC
Format/Info : Advanced Audio Codec
Format profile : LC
Codec ID : 40
Duration : 1h 41mn
Bit rate mode : Variable
Bit rate : 314 Kbps
Maximum bit rate : 381 Kbps
Channel(s) : 6 channels
Channel positions : Front: L C R, Side: L R, LFE
Sampling rate : 48.0 KHz
Compression mode : Lossy
Stream size : 227 MiB (16%)
Language : English
Encoded date : UTC 2012-09-23 19:45:52

Source : .720p.BluRay.x264-TRiPS - Thanks!




